# xmcd
#
# Track frame offsets:
#	150
#	20932
#	46027
#	64952
#	86657
#	105527
#	126682
#
# Disc length: 1997 seconds
#
# Revision: 1
# Processed by: cddbd v1.5.1PL0 Copyright (c) Steve Scherf et al.
# Submitted via: CDex 1.50Beta5
#
DISCID=6207cb07
DTITLE=Kimeru - The Beginning
DYEAR=1900
DGENRE=Pop
TTITLE0=DECIDE〜first Gate〜
TTITLE1=You Got Game?
TTITLE2=Feel My Soul〜闘いの中で〜
TTITLE3=Endless Pain
TTITLE4=Make You Free
TTITLE5=Key Of Life
TTITLE6=Song For you〜愛すべき人へ〜　K Texture Dub
EXTD=
EXTT0=
EXTT1=
EXTT2=
EXTT3=
EXTT4=
EXTT5=
EXTT6=
PLAYORDER=
